# Blender v2.77 (sub 0) OBJ File: 'ghost.blend'
# www.blender.org
mtllib ghost.mtl
o Ghost_Cylinder
v 0.000000 0.729674 0.000000
v 0.000000 2.749372 0.000000
v 0.000000 0.000000 -1.000000
v 0.000000 2.000000 -1.000000
v 0.707107 0.729674 -0.707107
v 0.707107 2.000000 -0.707107
v 1.000000 0.000000 0.000000
v 1.000000 2.000000 0.000000
v 0.707107 0.729674 0.707107
v 0.707107 2.000000 0.707107
v -0.000000 0.000000 1.000000
v -0.000000 2.000000 1.000000
v -0.707107 0.729674 0.707107
v -0.707107 2.000000 0.707107
v -1.000000 0.000000 -0.000000
v -1.000000 2.000000 -0.000000
v -0.707107 0.729674 -0.707107
v -0.707107 2.000000 -0.707107
v 0.000000 2.578263 -0.500000
v 0.353553 2.578263 -0.353553
v 0.500000 2.578263 0.000000
v 0.353553 2.578263 0.353553
v -0.000000 2.578263 0.500000
v -0.353553 2.578263 0.353553
v -0.500000 2.578263 -0.000000
v -0.353553 2.578263 -0.353553
vn 0.5078 -0.6959 0.5078
vn 0.2990 0.6241 -0.7218
vn 0.3827 0.0000 -0.9239
vn -0.5078 -0.6959 -0.5078
vn 0.7218 0.6241 -0.2990
vn 0.9239 0.0000 -0.3827
vn -0.5078 -0.6959 0.5078
vn 0.7218 0.6241 0.2990
vn 0.9239 0.0000 0.3827
vn 0.5078 -0.6959 -0.5078
vn 0.2990 0.6241 0.7218
vn 0.3827 0.0000 0.9239
vn -0.2990 0.6241 0.7218
vn -0.3827 0.0000 0.9239
vn -0.7218 0.6241 0.2990
vn -0.9239 0.0000 0.3827
vn -0.7218 0.6241 -0.2990
vn -0.9239 0.0000 -0.3827
vn -0.2990 0.6241 -0.7218
vn -0.3827 0.0000 -0.9239
vn -0.1329 0.9377 -0.3209
vn -0.3209 0.9377 -0.1329
vn -0.3209 0.9377 0.1329
vn -0.1329 0.9377 0.3209
vn 0.1329 0.9377 0.3209
vn 0.3209 0.9377 0.1329
vn 0.3209 0.9377 -0.1329
vn 0.1329 0.9377 -0.3209
usemtl None
s off
f 1//1 3//1 5//1
f 6//2 4//2 19//2
f 4//3 6//3 5//3
f 1//4 5//4 7//4
f 8//5 6//5 20//5
f 6//6 8//6 7//6
f 1//7 7//7 9//7
f 10//8 8//8 21//8
f 8//9 10//9 9//9
f 1//10 9//10 11//10
f 12//11 10//11 22//11
f 10//12 12//12 11//12
f 1//4 11//4 13//4
f 14//13 12//13 23//13
f 12//14 14//14 13//14
f 1//1 13//1 15//1
f 16//15 14//15 24//15
f 14//16 16//16 15//16
f 1//10 15//10 17//10
f 26//17 18//17 16//17
f 16//18 18//18 17//18
f 1//7 17//7 3//7
f 4//19 18//19 26//19
f 18//20 4//20 3//20
f 2//21 19//21 26//21
f 2//22 26//22 25//22
f 2//23 25//23 24//23
f 2//24 24//24 23//24
f 2//25 23//25 22//25
f 2//26 22//26 21//26
f 2//27 21//27 20//27
f 2//28 20//28 19//28
f 20//2 6//2 19//2
f 3//3 4//3 5//3
f 21//5 8//5 20//5
f 5//6 6//6 7//6
f 22//8 10//8 21//8
f 7//9 8//9 9//9
f 23//11 12//11 22//11
f 9//12 10//12 11//12
f 24//13 14//13 23//13
f 11//14 12//14 13//14
f 25//15 16//15 24//15
f 13//16 14//16 15//16
f 25//17 26//17 16//17
f 15//18 16//18 17//18
f 19//19 4//19 26//19
f 17//20 18//20 3//20
o Eye_Icosphere
v -0.342578 1.474869 0.928611
v -0.155338 1.675824 0.967204
v -0.414096 1.675824 0.991057
v -0.574019 1.675825 0.928611
v -0.414096 1.675824 0.866164
v -0.155338 1.675824 0.890017
v -0.271060 2.000983 0.991057
v -0.529818 2.000983 0.967204
v -0.529818 2.000983 0.890017
v -0.271060 2.000983 0.866164
v -0.111137 2.000981 0.928611
v -0.342578 2.201938 0.928611
v -0.384615 1.529161 0.965315
v -0.232522 1.529161 0.951295
v -0.274558 1.647280 0.988000
v -0.122465 1.647280 0.928611
v -0.232522 1.529161 0.905926
v -0.478616 1.529162 0.928611
v -0.520654 1.647280 0.965315
v -0.384615 1.529161 0.891906
v -0.520654 1.647280 0.891906
v -0.274558 1.647280 0.869221
v -0.096483 1.838403 0.951295
v -0.096483 1.838403 0.905926
v -0.342578 1.838403 1.002020
v -0.190483 1.838403 0.988000
v -0.588673 1.838403 0.951295
v -0.494673 1.838403 0.988000
v -0.494673 1.838403 0.869221
v -0.588673 1.838403 0.905926
v -0.190483 1.838403 0.869221
v -0.342578 1.838403 0.855201
v -0.164502 2.029526 0.965315
v -0.410598 2.029527 0.988000
v -0.562691 2.029526 0.928611
v -0.410598 2.029527 0.869221
v -0.164502 2.029526 0.891906
v -0.300541 2.147645 0.965315
v -0.206540 2.147644 0.928611
v -0.452634 2.147645 0.951295
v -0.452634 2.147645 0.905926
v -0.300541 2.147645 0.891906
v 0.342578 1.474869 0.928611
v 0.155338 1.675824 0.967204
v 0.414096 1.675824 0.991057
v 0.574019 1.675825 0.928611
v 0.414096 1.675824 0.866164
v 0.155338 1.675824 0.890017
v 0.271060 2.000983 0.991057
v 0.529818 2.000983 0.967204
v 0.529818 2.000983 0.890017
v 0.271060 2.000983 0.866164
v 0.111137 2.000981 0.928611
v 0.342578 2.201938 0.928611
v 0.384615 1.529161 0.965315
v 0.232522 1.529161 0.951295
v 0.274558 1.647280 0.988000
v 0.122465 1.647280 0.928611
v 0.232522 1.529161 0.905926
v 0.478616 1.529162 0.928611
v 0.520654 1.647280 0.965315
v 0.384615 1.529161 0.891906
v 0.520654 1.647280 0.891906
v 0.274558 1.647280 0.869221
v 0.096483 1.838403 0.951295
v 0.096483 1.838403 0.905926
v 0.342578 1.838403 1.002020
v 0.190483 1.838403 0.988000
v 0.588673 1.838403 0.951295
v 0.494673 1.838403 0.988000
v 0.494673 1.838403 0.869221
v 0.588673 1.838403 0.905926
v 0.190483 1.838403 0.869221
v 0.342578 1.838403 0.855201
v 0.164502 2.029526 0.965315
v 0.410598 2.029527 0.988000
v 0.562691 2.029526 0.928611
v 0.410598 2.029527 0.869221
v 0.164502 2.029526 0.891906
v 0.300541 2.147645 0.965315
v 0.206540 2.147644 0.928611
v 0.452634 2.147645 0.951295
v 0.452634 2.147645 0.905926
v 0.300541 2.147645 0.891906
vn 0.0786 -0.5158 0.8531
vn 0.5528 -0.3718 0.7458
vn -0.2688 -0.6736 0.6885
vn -0.2688 -0.6736 -0.6885
vn 0.0786 -0.5158 -0.8531
vn 0.6808 -0.1769 0.7108
vn 0.0074 -0.0705 0.9975
vn -0.6168 -0.1630 0.7700
vn -0.2119 -0.0867 -0.9734
vn 0.1907 -0.0839 -0.9781
vn 0.3634 -0.0405 0.9307
vn -0.0918 -0.0268 0.9954
vn -0.9960 -0.0898 0.0000
vn -0.0918 -0.0268 -0.9954
vn 0.3634 -0.0405 -0.9307
vn 0.1777 0.2047 0.9626
vn -0.2181 0.2180 0.9513
vn -0.5528 0.3718 -0.7458
vn 0.0144 0.1757 -0.9843
vn 0.6563 0.4269 -0.6222
vn 0.2688 0.6736 -0.6885
vn 0.3355 0.3864 -0.8592
vn 0.1777 0.2047 -0.9626
vn -0.0786 0.5158 -0.8531
vn -0.0885 0.2667 -0.9597
vn -0.2181 0.2180 -0.9513
vn -0.4424 0.8968 0.0000
vn -0.7316 0.6817 0.0000
vn -0.5528 0.3718 0.7458
vn -0.0786 0.5158 0.8531
vn -0.0885 0.2667 0.9597
vn 0.0144 0.1757 0.9843
vn 0.2688 0.6736 0.6885
vn 0.3355 0.3864 0.8592
vn 0.6563 0.4269 0.6222
vn 0.6168 0.1630 -0.7700
vn 0.3631 0.0610 -0.9298
vn 0.2119 0.0867 -0.9734
vn -0.0074 0.0705 -0.9975
vn -0.0917 0.0403 -0.9950
vn -0.1907 0.0839 -0.9781
vn -0.6808 0.1769 -0.7108
vn -0.9909 0.1347 0.0000
vn -0.6808 0.1769 0.7108
vn -0.1907 0.0839 0.9781
vn -0.0917 0.0403 0.9950
vn -0.0074 0.0705 0.9975
vn 0.2119 0.0867 0.9734
vn 0.3631 0.0610 0.9298
vn 0.6168 0.1630 0.7700
vn 0.0918 0.0268 -0.9954
vn 0.0917 -0.0403 -0.9950
vn 0.0074 -0.0705 -0.9975
vn -0.3634 0.0405 -0.9307
vn -0.3631 -0.0610 -0.9298
vn -0.6168 -0.1630 -0.7700
vn -0.3634 0.0405 0.9307
vn -0.3631 -0.0610 0.9298
vn -0.2119 -0.0867 0.9734
vn 0.0918 0.0268 0.9954
vn 0.0917 -0.0403 0.9950
vn 0.1907 -0.0839 0.9781
vn 0.9960 0.0898 0.0000
vn 0.9909 -0.1347 0.0000
vn 0.6808 -0.1769 -0.7108
vn 0.2181 -0.2180 -0.9513
vn 0.0885 -0.2667 -0.9597
vn -0.0144 -0.1757 -0.9843
vn -0.1777 -0.2047 -0.9626
vn -0.3355 -0.3864 -0.8592
vn -0.6563 -0.4269 -0.6222
vn -0.6563 -0.4269 0.6222
vn -0.3355 -0.3864 0.8592
vn -0.1777 -0.2047 0.9626
vn 0.5528 -0.3718 -0.7458
vn 0.7316 -0.6817 0.0000
vn 0.4424 -0.8968 0.0000
vn -0.0144 -0.1757 0.9843
vn 0.0885 -0.2667 0.9597
vn 0.2181 -0.2180 0.9513
vn -0.0786 -0.5158 0.8531
vn -0.5528 -0.3718 0.7458
vn 0.2688 -0.6736 0.6885
vn 0.2688 -0.6736 -0.6885
vn -0.0786 -0.5158 -0.8531
vn -0.6808 -0.1769 0.7108
vn -0.0074 -0.0705 0.9975
vn 0.6168 -0.1630 0.7700
vn 0.2119 -0.0867 -0.9734
vn -0.1907 -0.0839 -0.9781
vn -0.3634 -0.0405 0.9307
vn 0.0918 -0.0268 0.9954
vn 0.9960 -0.0898 0.0000
vn 0.0918 -0.0268 -0.9954
vn -0.3634 -0.0405 -0.9307
vn -0.1777 0.2047 0.9626
vn 0.2181 0.2180 0.9513
vn 0.5528 0.3718 -0.7458
vn -0.0144 0.1757 -0.9843
vn -0.6563 0.4269 -0.6222
vn -0.2688 0.6736 -0.6885
vn -0.3355 0.3864 -0.8592
vn -0.1777 0.2047 -0.9626
vn 0.0786 0.5158 -0.8531
vn 0.0885 0.2667 -0.9597
vn 0.2181 0.2180 -0.9513
vn 0.4424 0.8968 0.0000
vn 0.7316 0.6817 0.0000
vn 0.5528 0.3718 0.7458
vn 0.0786 0.5158 0.8531
vn 0.0885 0.2667 0.9597
vn -0.0144 0.1757 0.9843
vn -0.2688 0.6736 0.6885
vn -0.3355 0.3864 0.8592
vn -0.6563 0.4269 0.6222
vn -0.6168 0.1630 -0.7700
vn -0.3631 0.0610 -0.9298
vn -0.2119 0.0867 -0.9734
vn 0.0074 0.0705 -0.9975
vn 0.0917 0.0403 -0.9950
vn 0.1907 0.0839 -0.9781
vn 0.6808 0.1769 -0.7108
vn 0.9909 0.1347 0.0000
vn 0.6808 0.1769 0.7108
vn 0.1907 0.0839 0.9781
vn 0.0917 0.0403 0.9950
vn 0.0074 0.0705 0.9975
vn -0.2119 0.0867 0.9734
vn -0.3631 0.0610 0.9298
vn -0.6168 0.1630 0.7700
vn -0.0918 0.0268 -0.9954
vn -0.0917 -0.0403 -0.9950
vn -0.0074 -0.0705 -0.9975
vn 0.3634 0.0405 -0.9307
vn 0.3631 -0.0610 -0.9298
vn 0.6168 -0.1630 -0.7700
vn 0.3634 0.0405 0.9307
vn 0.3631 -0.0610 0.9298
vn 0.2119 -0.0867 0.9734
vn -0.0918 0.0268 0.9954
vn -0.0917 -0.0403 0.9950
vn -0.1907 -0.0839 0.9781
vn -0.9960 0.0898 0.0000
vn -0.9909 -0.1347 0.0000
vn -0.6808 -0.1769 -0.7108
vn -0.2181 -0.2180 -0.9513
vn -0.0885 -0.2667 -0.9597
vn 0.0144 -0.1757 -0.9843
vn 0.1777 -0.2047 -0.9626
vn 0.3355 -0.3864 -0.8592
vn 0.6563 -0.4269 -0.6222
vn 0.6563 -0.4269 0.6222
vn 0.3355 -0.3864 0.8592
vn 0.1777 -0.2047 0.9626
vn -0.5528 -0.3718 -0.7458
vn -0.7316 -0.6817 0.0000
vn -0.4424 -0.8968 0.0000
vn 0.0144 -0.1757 0.9843
vn -0.0885 -0.2667 0.9597
vn -0.2181 -0.2180 0.9513
usemtl EyeMaterial
s off
f 27//29 40//29 39//29
f 28//30 40//30 42//30
f 27//31 39//31 44//31
f 27//32 44//32 46//32
f 27//33 46//33 43//33
f 28//34 42//34 49//34
f 29//35 41//35 51//35
f 30//36 45//36 53//36
f 31//37 47//37 55//37
f 32//38 48//38 57//38
f 28//39 49//39 52//39
f 29//40 51//40 54//40
f 30//41 53//41 56//41
f 31//42 55//42 58//42
f 32//43 57//43 50//43
f 33//44 59//44 64//44
f 34//45 60//45 66//45
f 35//46 61//46 67//46
f 36//47 62//47 68//47
f 37//48 63//48 65//48
f 65//49 68//49 38//49
f 65//50 63//50 68//50
f 63//51 36//51 68//51
f 68//52 67//52 38//52
f 68//53 62//53 67//53
f 62//54 35//54 67//54
f 67//55 66//55 38//55
f 67//56 61//56 66//56
f 61//57 34//57 66//57
f 66//58 64//58 38//58
f 66//59 60//59 64//59
f 60//60 33//60 64//60
f 64//61 65//61 38//61
f 64//62 59//62 65//62
f 59//63 37//63 65//63
f 50//64 63//64 37//64
f 50//65 57//65 63//65
f 57//66 36//66 63//66
f 58//67 62//67 36//67
f 58//68 55//68 62//68
f 55//69 35//69 62//69
f 56//70 61//70 35//70
f 56//71 53//71 61//71
f 53//72 34//72 61//72
f 54//73 60//73 34//73
f 54//74 51//74 60//74
f 51//75 33//75 60//75
f 52//76 59//76 33//76
f 52//77 49//77 59//77
f 49//78 37//78 59//78
f 57//79 58//79 36//79
f 57//80 48//80 58//80
f 48//81 31//81 58//81
f 55//82 56//82 35//82
f 55//83 47//83 56//83
f 47//84 30//84 56//84
f 53//85 54//85 34//85
f 53//86 45//86 54//86
f 45//87 29//87 54//87
f 51//88 52//88 33//88
f 51//89 41//89 52//89
f 41//90 28//90 52//90
f 49//91 50//91 37//91
f 49//92 42//92 50//92
f 42//93 32//93 50//93
f 43//94 48//94 32//94
f 43//95 46//95 48//95
f 46//96 31//96 48//96
f 46//97 47//97 31//97
f 46//98 44//98 47//98
f 44//99 30//99 47//99
f 44//100 45//100 30//100
f 44//101 39//101 45//101
f 39//102 29//102 45//102
f 42//103 43//103 32//103
f 42//104 40//104 43//104
f 40//105 27//105 43//105
f 39//106 41//106 29//106
f 39//107 40//107 41//107
f 40//108 28//108 41//108
f 69//109 81//109 82//109
f 70//110 84//110 82//110
f 69//111 86//111 81//111
f 69//112 88//112 86//112
f 69//113 85//113 88//113
f 70//114 91//114 84//114
f 71//115 93//115 83//115
f 72//116 95//116 87//116
f 73//117 97//117 89//117
f 74//118 99//118 90//118
f 70//119 94//119 91//119
f 71//120 96//120 93//120
f 72//121 98//121 95//121
f 73//122 100//122 97//122
f 74//123 92//123 99//123
f 75//124 106//124 101//124
f 76//125 108//125 102//125
f 77//126 109//126 103//126
f 78//127 110//127 104//127
f 79//128 107//128 105//128
f 107//129 80//129 110//129
f 107//130 110//130 105//130
f 105//131 110//131 78//131
f 110//132 80//132 109//132
f 110//133 109//133 104//133
f 104//134 109//134 77//134
f 109//135 80//135 108//135
f 109//136 108//136 103//136
f 103//137 108//137 76//137
f 108//138 80//138 106//138
f 108//139 106//139 102//139
f 102//140 106//140 75//140
f 106//141 80//141 107//141
f 106//142 107//142 101//142
f 101//143 107//143 79//143
f 92//144 79//144 105//144
f 92//145 105//145 99//145
f 99//146 105//146 78//146
f 100//147 78//147 104//147
f 100//148 104//148 97//148
f 97//149 104//149 77//149
f 98//150 77//150 103//150
f 98//151 103//151 95//151
f 95//152 103//152 76//152
f 96//153 76//153 102//153
f 96//154 102//154 93//154
f 93//155 102//155 75//155
f 94//156 75//156 101//156
f 94//157 101//157 91//157
f 91//158 101//158 79//158
f 99//159 78//159 100//159
f 99//160 100//160 90//160
f 90//161 100//161 73//161
f 97//162 77//162 98//162
f 97//163 98//163 89//163
f 89//164 98//164 72//164
f 95//165 76//165 96//165
f 95//166 96//166 87//166
f 87//167 96//167 71//167
f 93//168 75//168 94//168
f 93//169 94//169 83//169
f 83//170 94//170 70//170
f 91//171 79//171 92//171
f 91//172 92//172 84//172
f 84//173 92//173 74//173
f 85//174 74//174 90//174
f 85//175 90//175 88//175
f 88//176 90//176 73//176
f 88//177 73//177 89//177
f 88//178 89//178 86//178
f 86//179 89//179 72//179
f 86//180 72//180 87//180
f 86//181 87//181 81//181
f 81//182 87//182 71//182
f 84//183 74//183 85//183
f 84//184 85//184 82//184
f 82//185 85//185 69//185
f 81//186 71//186 83//186
f 81//187 83//187 82//187
f 82//188 83//188 70//188
o Pupil_Icosphere.001
v -0.271467 1.635852 0.984504
v -0.169843 1.744919 1.005451
v -0.310283 1.744919 1.018397
v -0.397081 1.744920 0.984504
v -0.232651 1.921398 1.018397
v -0.373091 1.921398 1.005451
v -0.145854 1.921397 0.984504
v -0.271467 2.030465 0.984504
v -0.294282 1.665319 1.004426
v -0.211735 1.665319 0.996816
v -0.234550 1.729427 1.016738
v -0.152002 1.729428 0.984504
v -0.211735 1.665319 0.972193
v -0.345301 1.665320 0.984504
v -0.368117 1.729428 1.004426
v -0.294282 1.665319 0.964583
v -0.137900 1.833159 0.996816
v -0.137900 1.833159 0.972192
v -0.271467 1.833159 1.024347
v -0.188918 1.833159 1.016738
v -0.405034 1.833159 0.996816
v -0.354016 1.833159 1.016738
v -0.405034 1.833159 0.972192
v -0.174818 1.936890 1.004426
v -0.308385 1.936890 1.016738
v -0.390932 1.936890 0.984504
v -0.248652 2.000998 1.004426
v -0.197633 2.000998 0.984504
v -0.331200 2.000998 0.996816
v -0.331200 2.000998 0.972193
v -0.248652 2.000998 0.964583
v 0.271467 1.635852 0.984504
v 0.169843 1.744919 1.005451
v 0.310283 1.744919 1.018397
v 0.397081 1.744920 0.984504
v 0.232651 1.921398 1.018397
v 0.373091 1.921398 1.005451
v 0.145854 1.921397 0.984504
v 0.271467 2.030465 0.984504
v 0.294282 1.665319 1.004426
v 0.211735 1.665319 0.996816
v 0.234550 1.729427 1.016738
v 0.152002 1.729428 0.984504
v 0.211735 1.665319 0.972193
v 0.345301 1.665320 0.984504
v 0.368117 1.729428 1.004426
v 0.294282 1.665319 0.964583
v 0.137900 1.833159 0.996816
v 0.137900 1.833159 0.972192
v 0.271467 1.833159 1.024347
v 0.188918 1.833159 1.016738
v 0.405034 1.833159 0.996816
v 0.354016 1.833159 1.016738
v 0.405034 1.833159 0.972192
v 0.174818 1.936890 1.004426
v 0.308385 1.936890 1.016738
v 0.390932 1.936890 0.984504
v 0.248652 2.000998 1.004426
v 0.197633 2.000998 0.984504
v 0.331200 2.000998 0.996816
v 0.331200 2.000998 0.972193
v 0.248652 2.000998 0.964583
vn 0.0786 -0.5158 0.8531
vn 0.5528 -0.3718 0.7458
vn -0.2688 -0.6736 0.6885
vn -0.2688 -0.6736 -0.6885
vn 0.0786 -0.5158 -0.8531
vn 0.6808 -0.1769 0.7108
vn 0.0074 -0.0705 0.9975
vn -0.6168 -0.1630 0.7700
vn 0.3634 -0.0405 0.9307
vn -0.0918 -0.0268 0.9954
vn -0.9960 -0.0898 0.0000
vn 0.1777 0.2047 0.9626
vn -0.2181 0.2180 0.9513
vn 0.2688 0.6736 -0.6885
vn -0.0786 0.5158 -0.8531
vn -0.4424 0.8968 0.0000
vn -0.7316 0.6817 0.0000
vn -0.5527 0.3718 0.7458
vn -0.0786 0.5158 0.8531
vn -0.0885 0.2667 0.9597
vn 0.0144 0.1757 0.9843
vn 0.2688 0.6736 0.6885
vn 0.3355 0.3864 0.8592
vn 0.6563 0.4269 0.6222
vn -0.9909 0.1347 0.0000
vn -0.6808 0.1769 0.7108
vn -0.1907 0.0839 0.9781
vn -0.0917 0.0403 0.9950
vn -0.0074 0.0705 0.9975
vn 0.2119 0.0867 0.9734
vn 0.3631 0.0610 0.9298
vn 0.6168 0.1630 0.7700
vn -0.3634 0.0405 0.9307
vn -0.3631 -0.0610 0.9298
vn -0.2119 -0.0867 0.9734
vn 0.0918 0.0268 0.9954
vn 0.0917 -0.0403 0.9950
vn 0.1907 -0.0839 0.9781
vn 0.9960 0.0898 0.0000
vn 0.9909 -0.1347 0.0000
vn -0.6563 -0.4269 0.6222
vn -0.3355 -0.3864 0.8592
vn -0.1777 -0.2047 0.9626
vn 0.7316 -0.6817 0.0000
vn 0.4424 -0.8968 0.0000
vn -0.0144 -0.1757 0.9843
vn 0.0885 -0.2667 0.9597
vn 0.2181 -0.2180 0.9513
vn -0.0786 -0.5158 0.8531
vn -0.5528 -0.3718 0.7458
vn 0.2688 -0.6736 0.6885
vn 0.2688 -0.6736 -0.6885
vn -0.0786 -0.5158 -0.8531
vn -0.6808 -0.1769 0.7108
vn -0.0074 -0.0705 0.9975
vn 0.6168 -0.1630 0.7700
vn -0.3634 -0.0405 0.9307
vn 0.0918 -0.0268 0.9954
vn 0.9960 -0.0898 0.0000
vn -0.1777 0.2047 0.9626
vn 0.2181 0.2180 0.9513
vn -0.2688 0.6736 -0.6885
vn 0.0786 0.5158 -0.8531
vn 0.4424 0.8968 0.0000
vn 0.7316 0.6817 0.0000
vn 0.5527 0.3718 0.7458
vn 0.0786 0.5158 0.8531
vn 0.0885 0.2667 0.9597
vn -0.0144 0.1757 0.9843
vn -0.2688 0.6736 0.6885
vn -0.3355 0.3864 0.8592
vn -0.6563 0.4269 0.6222
vn 0.9909 0.1347 0.0000
vn 0.6808 0.1769 0.7108
vn 0.1907 0.0839 0.9781
vn 0.0917 0.0403 0.9950
vn 0.0074 0.0705 0.9975
vn -0.2119 0.0867 0.9734
vn -0.3631 0.0610 0.9298
vn -0.6168 0.1630 0.7700
vn 0.3634 0.0405 0.9307
vn 0.3631 -0.0610 0.9298
vn 0.2119 -0.0867 0.9734
vn -0.0918 0.0268 0.9954
vn -0.0917 -0.0403 0.9950
vn -0.1907 -0.0839 0.9781
vn -0.9960 0.0898 0.0000
vn -0.9909 -0.1347 0.0000
vn 0.6563 -0.4269 0.6222
vn 0.3355 -0.3864 0.8592
vn 0.1777 -0.2047 0.9626
vn -0.7316 -0.6817 0.0000
vn -0.4424 -0.8968 0.0000
vn 0.0144 -0.1757 0.9843
vn -0.0885 -0.2667 0.9597
vn -0.2181 -0.2180 0.9513
usemtl PupilMaterial
s off
f 111//189 120//189 119//189
f 112//190 120//190 122//190
f 111//191 119//191 124//191
f 111//192 124//192 126//192
f 111//193 126//193 123//193
f 112//194 122//194 127//194
f 113//195 121//195 129//195
f 114//196 125//196 131//196
f 112//197 127//197 130//197
f 113//198 129//198 132//198
f 114//199 131//199 133//199
f 115//200 134//200 137//200
f 116//201 135//201 139//201
f 138//202 141//202 118//202
f 141//203 140//203 118//203
f 140//204 139//204 118//204
f 140//205 136//205 139//205
f 136//206 116//206 139//206
f 139//207 137//207 118//207
f 139//208 135//208 137//208
f 135//209 115//209 137//209
f 137//210 138//210 118//210
f 137//211 134//211 138//211
f 134//212 117//212 138//212
f 133//213 131//213 136//213
f 131//214 116//214 136//214
f 132//215 135//215 116//215
f 132//216 129//216 135//216
f 129//217 115//217 135//217
f 130//218 134//218 115//218
f 130//219 127//219 134//219
f 127//220 117//220 134//220
f 131//221 132//221 116//221
f 131//222 125//222 132//222
f 125//223 113//223 132//223
f 129//224 130//224 115//224
f 129//225 121//225 130//225
f 121//226 112//226 130//226
f 127//227 128//227 117//227
f 127//228 122//228 128//228
f 124//229 125//229 114//229
f 124//230 119//230 125//230
f 119//231 113//231 125//231
f 122//232 120//232 123//232
f 120//233 111//233 123//233
f 119//234 121//234 113//234
f 119//235 120//235 121//235
f 120//236 112//236 121//236
f 142//237 150//237 151//237
f 143//238 153//238 151//238
f 142//239 155//239 150//239
f 142//240 157//240 155//240
f 142//241 154//241 157//241
f 143//242 158//242 153//242
f 144//243 160//243 152//243
f 145//244 162//244 156//244
f 143//245 161//245 158//245
f 144//246 163//246 160//246
f 145//247 164//247 162//247
f 146//248 168//248 165//248
f 147//249 170//249 166//249
f 169//250 149//250 172//250
f 172//251 149//251 171//251
f 171//252 149//252 170//252
f 171//253 170//253 167//253
f 167//254 170//254 147//254
f 170//255 149//255 168//255
f 170//256 168//256 166//256
f 166//257 168//257 146//257
f 168//258 149//258 169//258
f 168//259 169//259 165//259
f 165//260 169//260 148//260
f 164//261 167//261 162//261
f 162//262 167//262 147//262
f 163//263 147//263 166//263
f 163//264 166//264 160//264
f 160//265 166//265 146//265
f 161//266 146//266 165//266
f 161//267 165//267 158//267
f 158//268 165//268 148//268
f 162//269 147//269 163//269
f 162//270 163//270 156//270
f 156//271 163//271 144//271
f 160//272 146//272 161//272
f 160//273 161//273 152//273
f 152//274 161//274 143//274
f 158//275 148//275 159//275
f 158//276 159//276 153//276
f 155//277 145//277 156//277
f 155//278 156//278 150//278
f 150//279 156//279 144//279
f 153//280 154//280 151//280
f 151//281 154//281 142//281
f 150//282 144//282 152//282
f 150//283 152//283 151//283
f 151//284 152//284 143//284
