# Blender v2.77 (sub 0) OBJ File: 'switch.blend'
# www.blender.org
mtllib switch.mtl
o Plane
v -0.000000 1.000000 0.667000
v 0.000000 -1.000000 0.667000
v -0.000000 1.000000 -0.667000
v 0.000000 -1.000000 -0.667000
v 0.118430 0.221293 0.110501
v 0.118430 -0.221293 0.110501
v 0.118430 0.221293 -0.110501
v 0.118430 -0.221293 -0.110501
v 0.118430 0.941028 -0.627665
v 0.118430 0.941028 0.627665
v 0.118430 -0.941028 0.627665
v 0.118430 -0.941028 -0.627665
v 0.015788 0.216152 0.105360
v 0.015788 -0.216152 0.105360
v 0.015788 0.216152 -0.105360
v 0.015788 -0.216152 -0.105360
v 0.015788 0.221293 -0.110501
v 0.015788 0.221293 0.110501
v 0.015788 -0.221293 0.110501
v 0.015788 -0.221293 -0.110501
v 0.128313 0.207953 0.097161
v 0.128313 -0.207953 0.097161
v 0.128313 0.207953 -0.097161
v 0.128313 -0.207953 -0.097161
v 0.128313 0.216152 -0.105360
v 0.128313 0.216152 0.105360
v 0.128313 -0.216152 0.105360
v 0.128313 -0.216152 -0.105360
v 0.003574 0.197953 0.087161
v 0.003574 -0.197953 0.087161
v 0.003574 0.197953 -0.087161
v 0.003574 -0.197953 -0.087161
v 0.003574 0.207953 -0.097161
v 0.003574 0.207953 0.097161
v 0.003574 -0.207953 0.097161
v 0.003574 -0.207953 -0.097161
v 0.107966 0.197953 -0.087161
v 0.107966 0.197953 0.087161
v 0.107966 -0.197953 0.087161
v 0.107966 -0.197953 -0.087161
v 0.143296 0.093875 -0.084053
v 0.143296 0.093875 0.084053
v 0.143296 -0.166028 0.084053
v 0.143296 -0.166028 -0.084053
v 0.143296 -0.024139 -0.084053
v 0.143296 -0.024139 0.084053
v 0.143296 -0.166000 0.084053
v 0.143296 -0.166000 -0.084053
v 0.368248 -0.079235 -0.049036
v 0.368248 -0.079235 0.049036
v 0.351819 -0.157037 0.049036
v 0.351819 -0.157037 -0.049036
v 0.356760 -0.066114 -0.059423
v 0.356760 -0.066114 0.059423
v 0.336039 -0.164242 0.059423
v 0.336039 -0.164242 -0.059423
vn 0.0000 -1.0000 0.0000
vn 0.0000 0.0000 1.0000
vn 0.4457 -0.8952 0.0000
vn 0.4457 0.8952 0.0000
vn 0.3152 0.0000 -0.9490
vn 0.3152 0.0000 0.9490
vn 1.0000 0.0000 0.0000
vn 0.0000 0.0000 -1.0000
vn -0.0000 1.0000 0.0000
vn 0.6705 -0.7420 0.0000
vn -0.2560 0.0000 0.9667
vn 0.9469 0.3214 0.0000
vn 0.0876 0.0000 -0.9962
vn 0.0876 0.0000 0.9962
vn 0.0091 -1.0000 0.0000
vn -0.2560 0.0000 -0.9667
vn 0.9784 -0.2066 0.0000
vn 0.1929 0.9812 0.0000
vn 0.1194 -0.0103 -0.9928
vn 0.1194 -0.0103 0.9928
vn 0.7524 0.6587 0.0000
vn 0.5843 -0.1234 0.8021
vn 0.4153 -0.9097 0.0000
vn 0.5843 -0.1234 -0.8021
usemtl None
s off
f 30//1 32//1 40//1 39//1
f 8//2 7//2 17//2 20//2
f 2//3 4//3 12//3 11//3
f 3//4 1//4 10//4 9//4
f 4//5 3//5 9//5 12//5
f 1//6 2//6 11//6 10//6
f 5//7 7//7 9//7 10//7
f 6//7 5//7 10//7 11//7
f 8//7 6//7 11//7 12//7
f 7//7 8//7 12//7 9//7
f 16//8 15//8 25//8 28//8
f 5//8 6//8 19//8 18//8
f 6//9 8//9 20//9 19//9
f 7//1 5//1 18//1 17//1
f 13//7 15//7 17//7 18//7
f 14//7 13//7 18//7 19//7
f 16//7 14//7 19//7 20//7
f 15//7 16//7 20//7 17//7
f 22//9 24//9 36//9 35//9
f 13//2 14//2 27//2 26//2
f 14//1 16//1 28//1 27//1
f 15//9 13//9 26//9 25//9
f 21//7 23//7 25//7 26//7
f 22//7 21//7 26//7 27//7
f 24//7 22//7 27//7 28//7
f 23//7 24//7 28//7 25//7
f 23//1 21//1 34//1 33//1
f 24//2 23//2 33//2 36//2
f 21//8 22//8 35//8 34//8
f 29//7 31//7 33//7 34//7
f 30//7 29//7 34//7 35//7
f 32//7 30//7 35//7 36//7
f 31//7 32//7 36//7 33//7
f 39//10 40//10 44//10 43//10
f 31//9 29//9 38//9 37//9
f 32//8 31//8 37//8 40//8
f 29//2 30//2 39//2 38//2
f 44//11 41//11 45//11 48//11
f 37//12 38//12 42//12 41//12
f 40//13 37//13 41//13 44//13
f 38//14 39//14 43//14 42//14
f 47//15 48//15 56//15 55//15
f 42//16 43//16 47//16 46//16
f 43//7 44//7 48//7 47//7
f 41//7 42//7 46//7 45//7
f 49//17 50//17 51//17 52//17
f 45//18 46//18 54//18 53//18
f 48//19 45//19 53//19 56//19
f 46//20 47//20 55//20 54//20
f 50//21 49//21 53//21 54//21
f 51//22 50//22 54//22 55//22
f 52//23 51//23 55//23 56//23
f 49//24 52//24 56//24 53//24
