# Blender v2.75 (sub 0) OBJ File: 'monitor.blend'
# www.blender.org
mtllib vr_text.mtl
o VR_Text_Text.001
v -0.051152 0.158913 -0.010781
v -0.051152 0.070253 -0.010781
v -0.051152 0.070253 -0.023521
v -0.051152 0.108733 -0.023521
v -0.051152 0.108733 -0.028851
v -0.051152 0.107519 -0.035240
v -0.051152 0.101799 -0.042525
v -0.051152 0.088453 -0.052381
v -0.051152 0.070253 -0.064081
v -0.051152 0.070253 -0.079291
v -0.051152 0.077200 -0.074279
v -0.051152 0.082415 -0.070653
v -0.051152 0.087803 -0.067201
v -0.051152 0.097899 -0.060865
v -0.051152 0.106089 -0.054644
v -0.051152 0.112373 -0.047441
v -0.051152 0.117394 -0.055501
v -0.051152 0.124727 -0.060528
v -0.051152 0.134083 -0.062261
v -0.051152 0.147338 -0.058698
v -0.051152 0.155884 -0.048664
v -0.051152 0.158913 -0.033141
v -0.051152 0.147993 -0.023521
v -0.051152 0.147993 -0.031711
v -0.051152 0.146370 -0.041688
v -0.051152 0.141772 -0.047302
v -0.051152 0.134603 -0.049131
v -0.051152 0.127568 -0.047706
v -0.051152 0.122267 -0.042323
v -0.051152 0.120173 -0.031711
v -0.051152 0.120173 -0.023521
v -0.051152 0.158913 -0.000771
v -0.051152 0.158913 0.011839
v -0.051152 0.096643 0.038359
v -0.051152 0.158913 0.065009
v -0.051152 0.158913 0.077749
v -0.051152 0.069473 0.039399
v -0.051152 0.069473 0.036799
vn 1.000000 0.000000 -0.000000
usemtl Material.001
s off
f 2//1 23//1 1//1
f 23//1 22//1 1//1
f 23//1 21//1 22//1
f 23//1 24//1 21//1
f 24//1 20//1 21//1
f 2//1 31//1 23//1
f 25//1 20//1 24//1
f 25//1 19//1 20//1
f 26//1 19//1 25//1
f 27//1 19//1 26//1
f 28//1 19//1 27//1
f 28//1 18//1 19//1
f 29//1 18//1 28//1
f 29//1 17//1 18//1
f 30//1 17//1 29//1
f 2//1 4//1 31//1
f 4//1 30//1 31//1
f 4//1 17//1 30//1
f 4//1 16//1 17//1
f 4//1 5//1 16//1
f 5//1 15//1 16//1
f 2//1 3//1 4//1
f 6//1 15//1 5//1
f 7//1 15//1 6//1
f 7//1 14//1 15//1
f 8//1 14//1 7//1
f 8//1 13//1 14//1
f 9//1 13//1 8//1
f 9//1 12//1 13//1
f 9//1 11//1 12//1
f 9//1 10//1 11//1
f 37//1 35//1 36//1
f 37//1 34//1 35//1
f 34//1 32//1 33//1
f 34//1 38//1 32//1
f 37//1 38//1 34//1
