# Blender v2.75 (sub 0) OBJ File: 'CardboardLogo.blend'
# www.blender.org
mtllib cardboard.mtl
o Cardboard_Cube.001
v -0.064980 -0.033963 0.070000
v -0.064980 0.036037 0.070000
v -0.064980 -0.033963 -0.070000
v -0.064980 0.036037 -0.070000
v 0.005020 -0.033963 0.070000
v 0.005020 0.036037 0.070000
v 0.005020 -0.033963 -0.070000
v 0.005020 0.036037 -0.070000
v -0.064980 -0.029501 0.070000
v -0.064980 -0.005963 0.070000
v -0.064980 0.008037 0.070000
v -0.064980 0.031575 0.070000
v -0.064980 0.031575 -0.070000
v -0.064980 0.008037 -0.070000
v -0.064980 -0.005963 -0.070000
v -0.064980 -0.029501 -0.070000
v 0.005020 0.033760 -0.070000
v 0.005020 0.016938 -0.070000
v 0.005020 -0.014864 -0.070000
v 0.005020 -0.031686 -0.070000
v 0.005020 0.033760 0.070000
v 0.005020 0.016938 0.070000
v 0.005020 -0.014864 0.070000
v 0.005020 -0.031686 0.070000
v -0.064980 0.036037 0.065243
v -0.064980 0.036037 0.030000
v -0.064980 0.036037 0.010000
v -0.064980 0.036037 -0.010000
v -0.064980 0.036037 -0.030000
v -0.064980 0.036037 -0.065243
v -0.064980 -0.033963 -0.065243
v -0.064980 -0.033963 -0.030000
v -0.064980 -0.033963 -0.010000
v -0.064980 -0.033963 0.010000
v -0.064980 -0.033963 0.030000
v -0.064980 -0.033963 0.065243
v 0.005020 0.036037 -0.067858
v 0.005020 0.036037 -0.046544
v 0.005020 0.036037 -0.013927
v 0.005020 0.036037 0.013927
v 0.005020 0.036037 0.046544
v 0.005020 0.036037 0.067858
v 0.005020 -0.033963 0.067858
v 0.005020 -0.033963 0.046544
v 0.005020 -0.033963 0.013927
v 0.005020 -0.033963 -0.013927
v 0.005020 -0.033963 -0.046544
v 0.005020 -0.033963 -0.067858
v 0.005020 0.033760 0.067858
v 0.005020 0.033760 0.046544
v 0.005020 0.033760 0.013927
v 0.005020 0.033760 -0.013927
v 0.005020 0.033760 -0.046544
v 0.005020 0.033760 -0.067858
v 0.005020 0.016938 0.067858
v 0.005020 0.016938 0.046544
v 0.005020 0.016938 0.013927
v 0.005020 0.016938 -0.013927
v 0.005020 0.016938 -0.046544
v 0.005020 0.016938 -0.067858
v 0.005020 -0.014864 0.067858
v 0.005020 -0.014864 0.046544
v 0.005020 -0.014864 0.013927
v 0.005020 -0.014864 -0.013927
v 0.005020 -0.014864 -0.046544
v 0.005020 -0.014864 -0.067858
v 0.005020 -0.031686 0.067858
v 0.005020 -0.031686 0.046544
v 0.005020 -0.031686 0.013927
v 0.005020 -0.031686 -0.013927
v 0.005020 -0.031686 -0.046544
v 0.005020 -0.031686 -0.067858
v -0.064980 0.031575 -0.065243
v -0.064980 0.031575 -0.030000
v -0.064980 0.031575 -0.010000
v -0.064980 0.031575 0.010000
v -0.064980 0.031575 0.030000
v -0.064980 0.031575 0.065243
v -0.064980 0.008037 -0.065243
v -0.064980 0.008037 0.065243
v -0.064980 -0.005963 -0.065243
v -0.064980 -0.005963 0.065243
v -0.064980 -0.029501 -0.065243
v -0.064980 -0.029501 -0.030000
v -0.064980 -0.029501 -0.010000
v -0.064980 -0.029501 0.010000
v -0.064980 -0.029501 0.030000
v -0.064980 -0.029501 0.065243
v 0.039996 -0.031686 -0.070000
v 0.039996 -0.033963 -0.070000
v 0.039996 0.036037 0.067858
v 0.039996 0.036037 0.070000
v 0.039996 -0.031686 0.070000
v 0.039996 -0.033963 0.070000
v 0.039996 -0.033963 -0.067858
v 0.039996 0.036037 -0.070000
v 0.039996 0.033760 -0.070000
v 0.039996 0.016938 -0.070000
v 0.039996 -0.014864 -0.070000
v 0.039996 0.033760 0.070000
v 0.039996 0.016938 0.070000
v 0.039996 -0.014864 0.070000
v 0.039996 0.033760 -0.067858
v 0.039996 0.016938 -0.067858
v 0.039996 -0.014864 -0.067858
v 0.039996 -0.031686 -0.067858
v 0.039996 0.036037 -0.067858
v 0.018056 0.036037 -0.046544
v 0.008621 0.036037 -0.013927
v 0.008621 0.036037 0.013927
v 0.018056 0.036037 0.046544
v 0.039996 -0.033963 0.067858
v 0.018056 -0.033963 0.046544
v 0.008621 -0.033963 0.013927
v 0.008621 -0.033963 -0.013927
v 0.018056 -0.033963 -0.046544
v 0.039996 0.033760 0.067858
v 0.018056 0.033760 0.046544
v 0.008621 0.033760 0.013927
v 0.008621 0.033760 -0.013927
v 0.018056 0.033760 -0.046544
v 0.039996 0.016938 0.067858
v 0.039996 -0.014864 0.067858
v 0.039996 -0.031686 0.067858
v 0.018056 -0.031686 0.046544
v 0.008621 -0.031686 0.013927
v 0.008621 -0.031686 -0.013927
v 0.018056 -0.031686 -0.046544
v 0.005020 0.016938 0.030235
v 0.005020 -0.014864 0.030235
v 0.005020 0.001037 0.013927
v 0.005020 0.001037 0.046544
v 0.005020 0.016938 0.022081
v 0.005020 -0.014864 0.022081
v 0.005020 -0.006913 0.013927
v 0.005020 -0.006913 0.046544
v 0.005020 0.016938 0.038389
v 0.005020 -0.014864 0.038389
v 0.005020 0.008987 0.013927
v 0.005020 0.008987 0.046544
v 0.005020 0.016938 0.018004
v 0.005020 -0.014864 0.018004
v 0.005020 -0.010889 0.013927
v 0.005020 -0.010889 0.046544
v 0.005020 0.016938 0.034312
v 0.005020 -0.014864 0.034312
v 0.005020 0.005012 0.013927
v 0.005020 0.005012 0.046544
v 0.005020 0.016938 0.026158
v 0.005020 -0.014864 0.026158
v 0.005020 -0.002938 0.013927
v 0.005020 -0.002938 0.046544
v 0.005020 0.016938 0.042466
v 0.005020 -0.014864 0.042466
v 0.005020 0.012963 0.013927
v 0.005020 0.012963 0.046544
v 0.005020 0.012963 0.038389
v 0.005020 0.008987 0.042466
v 0.005020 0.012963 0.022081
v 0.005020 0.008987 0.018004
v 0.005020 -0.010889 0.022081
v 0.005020 -0.006913 0.018004
v 0.005020 -0.010889 0.038389
v 0.005020 -0.006913 0.042466
v 0.005020 -0.010889 0.018004
v 0.005020 0.012963 0.018004
v 0.005020 0.012963 0.042466
v 0.005020 -0.010889 0.042466
v 0.005020 0.016938 0.015965
v 0.005020 -0.014864 0.015965
v 0.005020 -0.012876 0.013927
v 0.005020 -0.012876 0.046544
v 0.005020 0.016938 0.032274
v 0.005020 -0.014864 0.032274
v 0.005020 0.003025 0.013927
v 0.005020 0.003025 0.046544
v 0.005020 0.016938 0.024120
v 0.005020 -0.014864 0.024120
v 0.005020 -0.004926 0.013927
v 0.005020 -0.004926 0.046544
v 0.005020 0.016938 0.040428
v 0.005020 -0.014864 0.040428
v 0.005020 0.010975 0.013927
v 0.005020 0.010975 0.046544
v 0.005020 0.008987 0.015965
v 0.005020 -0.012876 0.022081
v 0.005020 -0.006913 0.015965
v 0.005020 -0.012876 0.038389
v 0.005020 0.016938 0.020042
v 0.005020 -0.014864 0.020042
v 0.005020 -0.008901 0.013927
v 0.005020 -0.008901 0.046544
v 0.005020 0.016938 0.036351
v 0.005020 -0.014864 0.036351
v 0.005020 0.007000 0.013927
v 0.005020 0.007000 0.046544
v 0.005020 0.016938 0.028197
v 0.005020 -0.014864 0.028197
v 0.005020 -0.000951 0.013927
v 0.005020 -0.000951 0.046544
v 0.005020 0.016938 0.044505
v 0.005020 -0.014864 0.044505
v 0.005020 0.014950 0.013927
v 0.005020 0.014950 0.046544
v 0.005020 0.014950 0.038389
v 0.005020 0.008987 0.044505
v 0.005020 0.014950 0.022081
v 0.005020 -0.006913 0.044505
v 0.005020 -0.002938 0.044505
v 0.005020 -0.012876 0.034312
v 0.005020 -0.002938 0.015965
v 0.005020 -0.012876 0.018004
v 0.005020 -0.008901 0.018004
v 0.005020 -0.010889 0.015965
v 0.005020 -0.010889 0.020042
v 0.005020 0.014950 0.026158
v 0.005020 0.010975 0.018004
v 0.005020 0.014950 0.018004
v 0.005020 0.012963 0.015965
v 0.005020 0.012963 0.020042
v 0.005020 0.005012 0.015965
v 0.005020 0.010975 0.042466
v 0.005020 0.014950 0.042466
v 0.005020 0.012963 0.040428
v 0.005020 0.012963 0.044505
v 0.005020 0.014950 0.034312
v 0.005020 0.005012 0.044505
v 0.005020 -0.012876 0.026158
v 0.005020 -0.012876 0.042466
v 0.005020 -0.008901 0.042466
v 0.005020 -0.010889 0.040428
v 0.005020 -0.010889 0.044505
v 0.005020 -0.008901 0.044505
v 0.005020 -0.008901 0.040428
v 0.005020 -0.012876 0.040428
v 0.005020 -0.012876 0.024120
v 0.005020 0.007000 0.044505
v 0.005020 0.014950 0.036351
v 0.005020 0.014950 0.044505
v 0.005020 0.014950 0.040428
v 0.005020 0.010975 0.040428
v 0.005020 0.007000 0.015965
v 0.005020 0.014950 0.020042
v 0.005020 0.014950 0.015965
v 0.005020 0.010975 0.015965
v 0.005020 0.014950 0.024120
v 0.005020 -0.008901 0.020042
v 0.005020 -0.008901 0.015965
v 0.005020 -0.012876 0.015965
v 0.005020 -0.004926 0.015965
v 0.005020 -0.004926 0.044505
v 0.005020 -0.012876 0.036351
v 0.005020 -0.012876 0.020042
v 0.005020 0.010975 0.020042
v 0.005020 0.010975 0.044505
v 0.005020 -0.012876 0.044505
v 0.005020 0.016938 -0.030235
v 0.005020 -0.014864 -0.030235
v 0.005020 0.001037 -0.046544
v 0.005020 0.001037 -0.013927
v 0.005020 0.016938 -0.038389
v 0.005020 -0.014864 -0.038389
v 0.005020 -0.006913 -0.046544
v 0.005020 -0.006913 -0.013927
v 0.005020 0.016938 -0.022081
v 0.005020 -0.014864 -0.022081
v 0.005020 0.008987 -0.046544
v 0.005020 0.008987 -0.013927
v 0.005020 0.016938 -0.042466
v 0.005020 -0.014864 -0.042466
v 0.005020 -0.010889 -0.046544
v 0.005020 -0.010889 -0.013927
v 0.005020 0.016938 -0.026158
v 0.005020 -0.014864 -0.026158
v 0.005020 0.005012 -0.046544
v 0.005020 0.005012 -0.013927
v 0.005020 0.016938 -0.034312
v 0.005020 -0.014864 -0.034312
v 0.005020 -0.002938 -0.046544
v 0.005020 -0.002938 -0.013927
v 0.005020 0.016938 -0.018004
v 0.005020 -0.014864 -0.018004
v 0.005020 0.012963 -0.046544
v 0.005020 0.012963 -0.013927
v 0.005020 0.012963 -0.022081
v 0.005020 0.008987 -0.018004
v 0.005020 0.012963 -0.038389
v 0.005020 0.008987 -0.042466
v 0.005020 -0.010889 -0.038389
v 0.005020 -0.006913 -0.042466
v 0.005020 -0.010889 -0.022081
v 0.005020 -0.006913 -0.018004
v 0.005020 -0.010889 -0.042466
v 0.005020 0.012963 -0.042466
v 0.005020 0.012963 -0.018004
v 0.005020 -0.010889 -0.018004
v 0.005020 0.016938 -0.044505
v 0.005020 -0.014864 -0.044505
v 0.005020 -0.012876 -0.046544
v 0.005020 -0.012876 -0.013927
v 0.005020 0.016938 -0.028197
v 0.005020 -0.014864 -0.028197
v 0.005020 0.003025 -0.046544
v 0.005020 0.003025 -0.013927
v 0.005020 0.016938 -0.036351
v 0.005020 -0.014864 -0.036351
v 0.005020 -0.004926 -0.046544
v 0.005020 -0.004926 -0.013927
v 0.005020 0.016938 -0.020042
v 0.005020 -0.014864 -0.020042
v 0.005020 0.010975 -0.046544
v 0.005020 0.010975 -0.013927
v 0.005020 0.008987 -0.044505
v 0.005020 -0.012876 -0.038389
v 0.005020 -0.006913 -0.044505
v 0.005020 -0.012876 -0.022081
v 0.005020 0.016938 -0.040428
v 0.005020 -0.014864 -0.040428
v 0.005020 -0.008901 -0.046544
v 0.005020 -0.008901 -0.013927
v 0.005020 0.016938 -0.024120
v 0.005020 -0.014864 -0.024120
v 0.005020 0.007000 -0.046544
v 0.005020 0.007000 -0.013927
v 0.005020 0.016938 -0.032274
v 0.005020 -0.014864 -0.032274
v 0.005020 -0.000951 -0.046544
v 0.005020 -0.000951 -0.013927
v 0.005020 0.016938 -0.015965
v 0.005020 -0.014864 -0.015965
v 0.005020 0.014950 -0.046544
v 0.005020 0.014950 -0.013927
v 0.005020 0.014950 -0.022081
v 0.005020 0.008987 -0.015965
v 0.005020 0.014950 -0.038389
v 0.005020 -0.006913 -0.015965
v 0.005020 -0.002938 -0.015965
v 0.005020 -0.012876 -0.026158
v 0.005020 -0.002938 -0.044505
v 0.005020 -0.012876 -0.042466
v 0.005020 -0.008901 -0.042466
v 0.005020 -0.010889 -0.044505
v 0.005020 -0.010889 -0.040428
v 0.005020 0.014950 -0.034312
v 0.005020 0.010975 -0.042466
v 0.005020 0.014950 -0.042466
v 0.005020 0.012963 -0.044505
v 0.005020 0.012963 -0.040428
v 0.005020 0.005012 -0.044505
v 0.005020 0.010975 -0.018004
v 0.005020 0.014950 -0.018004
v 0.005020 0.012963 -0.020042
v 0.005020 0.012963 -0.015965
v 0.005020 0.014950 -0.026158
v 0.005020 0.005012 -0.015965
v 0.005020 -0.012876 -0.034312
v 0.005020 -0.012876 -0.018004
v 0.005020 -0.008901 -0.018004
v 0.005020 -0.010889 -0.020042
v 0.005020 -0.010889 -0.015965
v 0.005020 -0.008901 -0.015965
v 0.005020 -0.008901 -0.020042
v 0.005020 -0.012876 -0.020042
v 0.005020 -0.012876 -0.036351
v 0.005020 0.007000 -0.015965
v 0.005020 0.014950 -0.024120
v 0.005020 0.014950 -0.015965
v 0.005020 0.014950 -0.020042
v 0.005020 0.010975 -0.020042
v 0.005020 0.007000 -0.044505
v 0.005020 0.014950 -0.040428
v 0.005020 0.014950 -0.044505
v 0.005020 0.010975 -0.044505
v 0.005020 0.014950 -0.036351
v 0.005020 -0.008901 -0.040428
v 0.005020 -0.008901 -0.044505
v 0.005020 -0.012876 -0.044505
v 0.005020 -0.004926 -0.044505
v 0.005020 -0.004926 -0.015965
v 0.005020 -0.012876 -0.024120
v 0.005020 -0.012876 -0.040428
v 0.005020 0.010975 -0.040428
v 0.005020 0.010975 -0.015965
v 0.005020 -0.012876 -0.015965
v -0.064980 -0.033963 -0.003333
v -0.064980 -0.033963 0.003333
v -0.012578 -0.033963 0.004642
v -0.012578 -0.033963 -0.004642
v 0.005020 0.000076 0.004642
v 0.005020 0.000076 -0.004642
v -0.064980 -0.029501 -0.003333
v -0.064980 -0.029501 0.003333
v -0.008977 -0.033963 0.004642
v -0.008977 -0.033963 -0.004642
v -0.008977 -0.031686 0.004642
v -0.008977 -0.031686 -0.004642
v 0.005020 0.016938 -0.000000
v 0.005020 -0.007394 -0.009285
v 0.005020 -0.013870 -0.013927
v 0.005020 -0.013870 0.013927
v 0.005020 0.002031 0.013927
v 0.005020 -0.005920 0.013927
v 0.005020 0.009981 0.013927
v 0.005020 -0.009895 0.013927
v 0.005020 0.006006 0.013927
v 0.005020 -0.001944 0.013927
v 0.005020 0.013957 0.013927
v 0.005020 -0.011882 0.013927
v 0.005020 0.004018 0.013927
v 0.005020 -0.003932 0.013927
v 0.005020 0.011969 0.013927
v 0.005020 -0.007907 0.013927
v 0.005020 0.007994 0.013927
v 0.005020 0.000043 0.013927
v 0.005020 0.015944 0.013927
v 0.005020 0.002031 -0.013927
v 0.005020 -0.005920 -0.013927
v 0.005020 0.009981 -0.013927
v 0.005020 -0.009895 -0.013927
v 0.005020 0.006006 -0.013927
v 0.005020 -0.001944 -0.013927
v 0.005020 0.013957 -0.013927
v 0.005020 -0.011882 -0.013927
v 0.005020 0.004018 -0.013927
v 0.005020 -0.003932 -0.013927
v 0.005020 0.011969 -0.013927
v 0.005020 -0.007907 -0.013927
v 0.005020 0.007994 -0.013927
v 0.005020 0.000043 -0.013927
v 0.005020 0.015944 -0.013927
v 0.005020 -0.007394 0.009285
v 0.005020 0.000076 -0.000000
v 0.003344 -0.014864 0.013927
v 0.003344 -0.014864 -0.013927
v 0.003344 -0.031686 0.013927
v 0.003344 -0.031686 -0.013927
v 0.003344 0.000076 0.004642
v 0.003344 0.000076 -0.004642
v 0.003344 -0.007394 -0.009285
v 0.003344 -0.007394 0.009285
v 0.003344 0.000076 -0.000000
vn -1.000000 0.000000 0.000000
vn 0.000000 0.000000 -1.000000
vn 0.000000 -1.000000 0.000000
vn 0.000000 0.000000 1.000000
vn 0.000000 1.000000 0.000000
vn 1.000000 0.000000 0.000000
vn 0.000000 -0.527800 0.849300
vn 0.696800 0.000000 0.717300
vn 0.960600 0.000000 0.277900
vn 0.960600 0.000000 -0.277900
vn 0.696800 0.000000 -0.717300
vn 0.466600 0.000000 -0.884400
vn 0.032000 0.999500 0.000000
vn 0.466600 0.000000 0.884400
vn 0.000000 -0.527800 -0.849300
usemtl Material
s off
f 83//1 16//1 3//1 31//1
f 16//2 20//2 7//2 3//2
f 5//3 43//3 112//3 94//3
f 24//4 9//4 1//4 5//4
f 31//3 3//3 7//3 48//3
f 37//5 8//5 4//5 30//5
f 6//4 2//4 12//4 21//4
f 21//4 12//4 11//4 22//4
f 22//4 11//4 10//4 23//4
f 23//4 10//4 9//4 24//4
f 24//4 5//4 94//4 93//4
f 18//2 17//2 97//2 98//2
f 69//5 68//5 125//5 126//5
f 41//5 42//5 91//5 111//5
f 4//2 8//2 17//2 13//2
f 13//2 17//2 18//2 14//2
f 14//2 18//2 19//2 15//2
f 15//2 19//2 20//2 16//2
f 30//1 4//1 13//1 73//1
f 73//1 13//1 14//1 79//1
f 79//1 14//1 15//1 81//1
f 81//1 15//1 16//1 83//1
f 10//1 82//1 88//1 9//1
f 11//1 80//1 82//1 10//1
f 12//1 78//1 80//1 11//1
f 2//1 25//1 78//1 12//1
f 25//1 26//1 77//1 78//1
f 26//1 27//1 76//1 77//1
f 27//1 28//1 75//1 76//1
f 28//1 29//1 74//1 75//1
f 29//1 30//1 73//1 74//1
f 42//5 6//5 92//5 91//5
f 66//6 65//6 71//6 72//6
f 65//6 298//6 270//6 318//6 262//6 306//6 278//6 326//6 258//6 302//6 274//6 322//6 266//6 310//6 282//6 330//6 64//6 70//6 71//6
f 398//7 390//7 438//7 439//7
f 63//6 170//6 142//6 190//6 134//6 178//6 150//6 198//6 130//6 174//6 146//6 194//6 138//6 182//6 154//6 202//6 62//6 68//6 69//6
f 62//6 61//6 67//6 68//6
f 17//2 8//2 96//2 97//2
f 60//6 59//6 331//6 283//6 311//6 267//6 323//6 275//6 303//6 259//6 327//6 279//6 307//6 263//6 319//6 271//6 299//6 65//6 66//6
f 384//6 300//6 399//6 64//6 330//6
f 58//6 397//6 57//6 415//6 203//6 407//6 155//6 411//6 183//6 403//6 139//6 413//6 195//6 405//6 147//6 409//6 175//6 401//6 131//6 414//6 199//6 406//6 151//6 410//6 179//6 402//6 135//6 412//6 191//6 404//6 143//6 408//6 171//6 400//6 63//6 431//6 389//6 432//6 390//6 398//6 64//6 399//6 300//6 423//6 272//6 419//6 320//6 427//6 264//6 417//6 308//6 425//6 280//6 421//6 328//6 429//6 260//6 416//6 304//6 424//6 276//6 420//6 324//6 428//6 268//6 418//6 312//6 426//6 284//6 422//6 332//6 430//6
f 256//6 172//6 62//6 202//6
f 56//6 55//6 61//6 62//6 172//6 144//6 192//6 136//6 180//6 152//6 200//6 132//6 176//6 148//6 196//6 140//6 184//6 156//6 204//6
f 68//5 67//5 124//5 125//5
f 54//6 53//6 59//6 60//6
f 53//6 52//6 58//6 329//6 281//6 309//6 265//6 321//6 273//6 301//6 257//6 325//6 277//6 305//6 261//6 317//6 269//6 297//6 59//6
f 52//6 51//6 57//6 397//6 58//6
f 51//6 50//6 56//6 201//6 153//6 181//6 137//6 193//6 145//6 173//6 129//6 197//6 149//6 177//6 133//6 189//6 141//6 169//6 57//6
f 50//6 49//6 55//6 56//6
f 40//5 41//5 111//5 110//5
f 53//3 54//3 103//3 121//3
f 66//4 72//4 106//4 105//4
f 39//5 40//5 110//5 109//5
f 7//2 20//2 89//2 90//2
f 52//3 53//3 121//3 120//3
f 6//5 42//5 25//5 2//5
f 42//5 41//5 26//5 25//5
f 41//5 40//5 27//5 26//5
f 40//5 39//5 28//5 27//5
f 39//5 38//5 29//5 28//5
f 38//5 37//5 30//5 29//5
f 1//3 36//3 43//3 5//3
f 36//3 35//3 44//3 43//3
f 35//3 34//3 45//3 44//3
f 385//3 33//3 46//3 388//3
f 33//3 32//3 47//3 46//3
f 32//3 31//3 48//3 47//3
f 54//4 60//4 104//4 103//4
f 38//5 39//5 109//5 108//5
f 51//3 52//3 120//3 119//3
f 61//2 55//2 122//2 123//2
f 37//5 38//5 108//5 107//5
f 50//3 51//3 119//3 118//3
f 9//1 88//1 36//1 1//1
f 88//1 87//1 35//1 36//1
f 87//1 86//1 34//1 35//1
f 391//1 85//1 33//1 385//1
f 85//1 84//1 32//1 33//1
f 84//1 83//1 31//1 32//1
f 124//6 93//6 94//6 112//6
f 91//6 92//6 100//6 117//6
f 117//6 100//6 101//6 122//6
f 122//6 101//6 102//6 123//6
f 123//6 102//6 93//6 124//6
f 99//6 105//6 106//6 89//6
f 98//6 104//6 105//6 99//6
f 97//6 103//6 104//6 98//6
f 96//6 107//6 103//6 97//6
f 107//8 108//8 121//8 103//8
f 108//9 109//9 120//9 121//9
f 109//6 110//6 119//6 120//6
f 110//10 111//10 118//10 119//10
f 111//11 91//11 117//11 118//11
f 89//6 106//6 95//6 90//6
f 106//8 128//8 116//8 95//8
f 128//9 127//9 115//9 116//9
f 395//12 126//12 114//12 393//12
f 126//10 125//10 113//10 114//10
f 125//11 124//11 112//11 113//11
f 19//2 18//2 98//2 99//2
f 48//3 7//3 90//3 95//3
f 43//3 44//3 113//3 112//3
f 55//2 49//2 117//2 122//2
f 71//5 70//5 127//5 128//5
f 20//2 19//2 99//2 89//2
f 44//3 45//3 114//3 113//3
f 72//5 71//5 128//5 106//5
f 6//4 21//4 100//4 92//4
f 67//2 61//2 123//2 124//2
f 388//3 46//3 115//3 394//3
f 21//4 22//4 101//4 100//4
f 60//4 66//4 105//4 104//4
f 46//3 47//3 116//3 115//3
f 22//4 23//4 102//4 101//4
f 47//3 48//3 95//3 116//3
f 23//4 24//4 93//4 102//4
f 49//3 50//3 118//3 117//3
f 8//5 37//5 107//5 96//5
f 255//6 184//6 140//6 206//6
f 253//6 186//6 134//6 190//6
f 252//6 188//6 138//6 194//6
f 251//6 180//6 136//6 208//6
f 249//6 212//6 142//6 170//6
f 248//6 213//6 165//6 214//6
f 245//6 217//6 160//6 185//6
f 244//6 218//6 166//6 219//6
f 243//6 207//6 159//6 220//6
f 240//6 223//6 167//6 224//6
f 239//6 204//6 156//6 225//6
f 237//6 196//6 148//6 227//6
f 236//6 228//6 150//6 178//6
f 235//6 229//6 154//6 182//6
f 234//6 230//6 168//6 231//6
f 233//6 192//6 144//6 232//6
f 230//6 233//6 232//6 168//6
f 164//6 208//6 233//6 230//6
f 208//6 136//6 192//6 233//6
f 188//6 235//6 182//6 138//6
f 163//6 231//6 235//6 188//6
f 231//6 168//6 229//6 235//6
f 186//6 236//6 178//6 134//6
f 206//6 140//6 196//6 237//6
f 145//6 193//6 238//6 226//6
f 193//6 137//6 205//6 238//6
f 223//6 239//6 225//6 167//6
f 153//6 201//6 239//6 223//6
f 201//6 56//6 204//6 239//6
f 205//6 240//6 224//6 157//6
f 137//6 181//6 240//6 205//6
f 181//6 153//6 223//6 240//6
f 224//6 167//6 222//6 241//6
f 195//6 242//6 221//6 147//6 405//6
f 139//6 185//6 242//6 195//6 413//6
f 218//6 243//6 220//6 166//6
f 141//6 189//6 243//6 218//6
f 189//6 133//6 207//6 243//6
f 203//6 244//6 219//6 155//6 407//6
f 57//6 169//6 244//6 203//6 415//6
f 169//6 141//6 218//6 244//6
f 183//6 245//6 185//6 139//6 403//6
f 155//6 219//6 245//6 183//6 411//6
f 219//6 166//6 217//6 245//6
f 133//6 177//6 246//6 207//6
f 177//6 149//6 216//6 246//6
f 213//6 247//6 215//6 165//6
f 191//6 248//6 214//6 143//6 404//6
f 135//6 187//6 248//6 191//6 412//6
f 187//6 162//6 213//6 248//6
f 171//6 249//6 170//6 63//6 400//6
f 143//6 214//6 249//6 171//6 408//6
f 214//6 165//6 212//6 249//6
f 179//6 250//6 187//6 135//6 402//6
f 151//6 211//6 250//6 179//6 410//6
f 209//6 152//6 180//6 251//6
f 210//6 252//6 194//6 146//6
f 212//6 253//6 190//6 142//6
f 165//6 215//6 253//6 212//6
f 215//6 161//6 186//6 253//6
f 166//6 220//6 254//6 217//6
f 222//6 255//6 206//6 158//6
f 167//6 225//6 255//6 222//6
f 225//6 156//6 184//6 255//6
f 229//6 256//6 202//6 154//6
f 168//6 232//6 256//6 229//6
f 232//6 144//6 172//6 256//6
f 383//6 312//6 418//6 268//6 334//6
f 381//6 314//6 262//6 318//6
f 380//6 316//6 266//6 322//6
f 379//6 308//6 417//6 264//6 336//6
f 377//6 340//6 270//6 298//6
f 376//6 341//6 293//6 342//6
f 373//6 345//6 288//6 313//6
f 372//6 346//6 294//6 347//6
f 371//6 335//6 287//6 348//6
f 368//6 351//6 295//6 352//6
f 367//6 332//6 422//6 284//6 353//6
f 365//6 324//6 420//6 276//6 355//6
f 364//6 356//6 278//6 306//6
f 363//6 357//6 282//6 310//6
f 362//6 358//6 296//6 359//6
f 361//6 320//6 419//6 272//6 360//6
f 358//6 361//6 360//6 296//6
f 292//6 336//6 361//6 358//6
f 336//6 264//6 427//6 320//6 361//6
f 316//6 363//6 310//6 266//6
f 291//6 359//6 363//6 316//6
f 359//6 296//6 357//6 363//6
f 314//6 364//6 306//6 262//6
f 334//6 268//6 428//6 324//6 365//6
f 273//6 321//6 366//6 354//6
f 321//6 265//6 333//6 366//6
f 351//6 367//6 353//6 295//6
f 281//6 329//6 367//6 351//6
f 329//6 58//6 430//6 332//6 367//6
f 333//6 368//6 352//6 285//6
f 265//6 309//6 368//6 333//6
f 309//6 281//6 351//6 368//6
f 352//6 295//6 350//6 369//6
f 323//6 370//6 349//6 275//6
f 267//6 313//6 370//6 323//6
f 346//6 371//6 348//6 294//6
f 269//6 317//6 371//6 346//6
f 317//6 261//6 335//6 371//6
f 331//6 372//6 347//6 283//6
f 59//6 297//6 372//6 331//6
f 297//6 269//6 346//6 372//6
f 311//6 373//6 313//6 267//6
f 283//6 347//6 373//6 311//6
f 347//6 294//6 345//6 373//6
f 261//6 305//6 374//6 335//6
f 305//6 277//6 344//6 374//6
f 341//6 375//6 343//6 293//6
f 319//6 376//6 342//6 271//6
f 263//6 315//6 376//6 319//6
f 315//6 290//6 341//6 376//6
f 299//6 377//6 298//6 65//6
f 271//6 342//6 377//6 299//6
f 342//6 293//6 340//6 377//6
f 307//6 378//6 315//6 263//6
f 279//6 339//6 378//6 307//6
f 337//6 280//6 425//6 308//6 379//6
f 338//6 380//6 322//6 274//6
f 340//6 381//6 318//6 270//6
f 293//6 343//6 381//6 340//6
f 343//6 289//6 314//6 381//6
f 294//6 348//6 382//6 345//6
f 350//6 383//6 334//6 286//6
f 295//6 353//6 383//6 350//6
f 353//6 284//6 426//6 312//6 383//6
f 357//6 384//6 330//6 282//6
f 296//6 360//6 384//6 357//6
f 360//6 272//6 423//6 300//6 384//6
f 45//3 387//3 393//3 114//3
f 387//3 388//3 394//3 393//3
f 88//13 67//13 68//13 69//13 126//13 395//13 396//13 127//13 70//13 71//13 72//13 83//13 84//13 85//13 391//13 392//13 86//13 87//13
f 127//14 396//14 394//14 115//14
f 396//6 395//6 393//6 394//6
f 86//1 392//1 386//1 34//1
f 392//1 391//1 385//1 386//1
f 34//3 386//3 387//3 45//3
f 386//3 385//3 388//3 387//3
f 431//15 63//15 433//15 440//15
f 63//2 69//2 435//2 433//2
f 390//3 432//3 441//3 438//3
f 70//4 64//4 434//4 436//4
f 432//3 389//3 437//3 441//3
f 64//7 398//7 439//7 434//7
f 389//15 431//15 440//15 437//15
